<?xml version="1.0" encoding="UTF-8" standalone="no"?>
<svg
   xmlns:dc="http://purl.org/dc/elements/1.1/"
   xmlns:cc="http://creativecommons.org/ns#"
   xmlns:rdf="http://www.w3.org/1999/02/22-rdf-syntax-ns#"
   xmlns:svg="http://www.w3.org/2000/svg"
   xmlns="http://www.w3.org/2000/svg"
   xmlns:sodipodi="http://sodipodi.sourceforge.net/DTD/sodipodi-0.dtd"
   xmlns:inkscape="http://www.inkscape.org/namespaces/inkscape"
   width="48.353542mm"
   height="48.679855mm"
   viewBox="0 0 48.353543 48.679856"
   version="1.1"
   id="svg8"
   inkscape:version="1.0 (4035a4f, 2020-05-01)"
   sodipodi:docname="bete.svg">
  <defs
     id="defs2" />
  <sodipodi:namedview
     id="base"
     pagecolor="#ffffff"
     bordercolor="#666666"
     borderopacity="1.0"
     inkscape:pageopacity="0.0"
     inkscape:pageshadow="2"
     inkscape:zoom="2.3453856"
     inkscape:cx="115.47561"
     inkscape:cy="106.17922"
     inkscape:document-units="mm"
     inkscape:current-layer="layer1"
     inkscape:document-rotation="0"
     showgrid="false"
     showguides="true"
     inkscape:guide-bbox="true"
     fit-margin-top="0"
     fit-margin-left="0"
     fit-margin-right="0"
     fit-margin-bottom="0"
     inkscape:window-width="1280"
     inkscape:window-height="703"
     inkscape:window-x="36"
     inkscape:window-y="23"
     inkscape:window-maximized="0" />
  <metadata
     id="metadata5">
    <rdf:RDF>
      <cc:Work
         rdf:about="">
        <dc:format>image/svg+xml</dc:format>
        <dc:type
           rdf:resource="http://purl.org/dc/dcmitype/StillImage" />
        <dc:title></dc:title>
      </cc:Work>
    </rdf:RDF>
  </metadata>
  <g
     inkscape:label="Layer 1"
     inkscape:groupmode="layer"
     id="layer1"
     transform="translate(143.18174,2.8953353)">
    <path
       style="fill:#000000;fill-opacity:1;stroke:none;stroke-width:17.5584;stroke-dasharray:52.6751, 52.6751"
       d=""
       id="path1166"
       transform="scale(0.26458333)" />
    <path
       style="fill:#000000;fill-opacity:1;stroke:none;stroke-width:17.5584;stroke-dasharray:52.6751, 52.6751"
       d=""
       id="path1184"
       transform="scale(0.26458333)" />
    <path
       style="fill:#000000;fill-opacity:1;stroke:none;stroke-width:17.5584;stroke-dasharray:52.6751, 52.6751"
       d=""
       id="path1188"
       transform="scale(0.26458333)" />
    <g
       transform="matrix(0.26469119,0,0,0.26469119,-119.88309,15.18374)"
       id="g2104">
      <path
         transform="scale(0.26458333)"
         id="path1160"
         d="M 92.295972,306.0133 C 36.825209,278.29888 33.298848,275.50915 -2.2094037,231.24931 -30.306031,196.22779 -42.77728,182.56196 -55.832141,172.4902 c -8.087957,-6.23979 -11.182071,-7.53002 -19.968527,-8.32675 -20.058382,-1.81884 -56.328262,6.46583 -123.894332,28.29961 -16.39334,5.29747 -30.34409,9.07589 -31.00167,8.39654 -1.77723,-1.83611 -4.95769,-67.96618 -4.95769,-103.083289 0,-30.103052 -0.15072,-31.336321 -8.77532,-71.803669 -13.00157,-61.004375 -14.75552,-76.885138 -9.59396,-86.866487 3.12912,-6.051057 7.79663,-6.61631 21.15961,-2.562509 14.26262,4.326712 19.13644,3.591358 24.75639,-3.735202 2.69366,-3.511641 7.03211,-8.838642 9.641,-11.837779 l 4.74344,-5.452977 12.97123,6.860224 12.97124,6.860225 28.12462,-7.039917 c 31.45357,-7.873191 29.35097,-8.094454 44.30136,4.661961 13.547803,11.559662 17.265515,13.646231 26.782774,15.031872 7.947288,1.157065 8.656047,0.913447 14.082958,-4.840754 3.142975,-3.332526 10.331277,-13.795648 15.974022,-23.251383 10.704334,-17.937636 20.960586,-30.726516 24.641644,-30.726516 1.185111,0 3.560629,1.55348 5.2789308,3.45218 3.4211182,3.7803 3.276557,9.16779 -0.9687863,36.104472 -2.0541795,13.033789 -1.9651595,14.653459 1.1498956,20.924094 4.2875208,8.630765 8.19884587,11.190468 12.1230083,7.933702 1.5963465,-1.32486 16.6471266,-18.750236 33.4461456,-38.723056 16.799036,-19.972822 31.709026,-36.761402 33.133313,-37.307942 1.575529,-0.60459 3.892455,0.86382 5.91668,3.74985 9.602648,13.691 10.568822,36.902798 2.50426,60.163203 -2.808903,8.101597 -5.720716,16.111251 -6.470705,17.79923 -1.167626,2.627922 -0.391366,3.069445 5.400552,3.071779 3.720307,0.0015 9.261265,1.382574 12.313272,3.069054 3.052008,1.68648 8.622744,4.781078 12.379426,6.87688 3.7567,2.095804 15.20772,5.398592 25.44675,7.339532 30.39389,5.761556 31.46722,6.834104 37.9821,37.954779 2.5533,12.196653 4.73289,18.41537 7.15707,20.420253 4.79467,3.965346 20.25986,6.371609 54.98493,8.555226 33.89671,2.13153 43.34952,3.648441 55.61418,8.924565 14.42638,6.206066 19.70857,17.124233 15.80268,32.6638 -3.59444,14.300459 -13.55529,23.815109 -28.76531,27.476729 -9.55703,2.30076 -37.56041,1.18504 -66.18185,-2.63682 -15.82588,-2.11325 -37.84996,-3.90744 -48.9424,-3.98709 -33.61362,-0.24137 -43.97955,5.52102 -59.627328,33.14661 -21.733969,38.37052 -21.151673,62.68921 2.166735,90.49208 5.965153,7.11233 15.455953,18.42869 21.090663,25.14746 12.44727,14.84203 25.84746,40.67558 25.84746,49.83004 0,6.02439 -3.52274,13.44377 -7.7902,16.40725 -4.43984,3.08317 -12.62698,0.17746 -44.822148,-15.90796 z"
         style="fill:#000000;fill-opacity:1;stroke:none;stroke-width:53.0266;stroke-dasharray:159.08, 159.08" />
      <path
         transform="scale(0.26458333)"
         id="path1162"
         d="m 217.01966,261.41957 c -9.58782,-4.89318 -55.99355,-39.83992 -74.70508,-56.2581 -14.30499,-12.55173 -42.491957,-34.02602 -49.580171,-37.77275 -4.926368,-2.60401 -4.940998,-5.08161 -0.08898,-15.06853 4.436558,-9.13178 6.971817,-9.71122 22.569351,-5.15827 21.13038,6.16798 32.45068,15.7035 60.56494,51.0161 21.45453,26.94773 25.24795,29.97827 48.924,39.08509 24.34252,9.36317 26.97492,14.16063 12.80983,23.34545 -8.89886,5.77013 -10.64176,5.8391 -20.4939,0.81101 z"
         style="fill:#000000;fill-opacity:1;stroke:none;stroke-width:53.0266;stroke-dasharray:159.08, 159.08" />
      <path
         transform="scale(0.26458333)"
         id="path1164"
         d="m 203.38812,138.3331 c 5.47246,-6.45063 11.1464,-14.04213 12.60875,-16.87001 2.24256,-4.33664 3.68138,-5.12229 9.19033,-5.01833 12.4278,0.23454 13.19873,1.40801 7.22647,10.99991 -4.45423,7.15383 -7.2756,9.40207 -17.8982,14.26237 -21.8299,9.98812 -22.33362,9.83538 -11.12735,-3.37394 z"
         style="fill:#000000;fill-opacity:1;stroke:none;stroke-width:53.0266;stroke-dasharray:159.08, 159.08" />
      <path
         transform="scale(0.26458333)"
         id="path1168"
         d="m 118.82318,251.17976 c -4.75541,-5.74884 -4.74331,-5.79787 1.4602,-5.91846 3.9568,-0.0769 4.52253,0.65895 4.14287,5.38875 -0.50528,6.2947 -0.81044,6.32355 -5.60307,0.52971 z"
         style="fill:#000000;fill-opacity:1;stroke:none;stroke-width:17.5584;stroke-dasharray:52.6751, 52.6751" />
      <path
         transform="scale(0.26458333)"
         id="path1170"
         d="m 105.4745,235.86625 c -3.6327,-4.15414 -6.467118,-7.69077 -6.298711,-7.85917 0.168407,-0.16841 1.964681,0.20356 3.991731,0.82659 2.02704,0.62303 5.0443,1.31734 6.70503,1.54291 4.32401,0.5873 4.52696,1.00737 3.65813,7.57177 -0.40132,3.03212 -0.89203,5.50348 -1.09047,5.49192 -0.19844,-0.0116 -3.33301,-3.41987 -6.96571,-7.57402 z"
         style="fill:#000000;fill-opacity:1;stroke:none;stroke-width:17.5584;stroke-dasharray:52.6751, 52.6751" />
      <path
         transform="scale(0.26458333)"
         id="path1172"
         d="m 91.582318,218.39153 c -1.304194,-1.98457 -2.259467,-3.7892 -2.122827,-4.01028 0.497489,-0.80496 5.43775,-1.18503 6.690255,-0.51471 1.541955,0.82523 1.241213,3.07474 -0.815771,6.10186 l -1.380394,2.03143 z"
         style="fill:#000000;fill-opacity:1;stroke:none;stroke-width:17.5584;stroke-dasharray:52.6751, 52.6751" />
      <path
         transform="scale(0.26458333)"
         id="path1174"
         d="m 128.52223,263.72004 -2.7205,-3.99896 h 3.73673 c 3.38423,0 3.73674,0.11269 3.73674,1.19461 0,1.56687 -1.20205,6.3141 -1.66836,6.58882 -0.20026,0.11797 -1.58834,-1.58504 -3.08461,-3.78447 z"
         style="fill:#000000;fill-opacity:1;stroke:none;stroke-width:17.5584;stroke-dasharray:52.6751, 52.6751" />
      <path
         transform="scale(0.26458333)"
         id="path1176"
         d="m 190.82724,119.65759 c -1.15201,-1.33982 -3.50626,-3.953 -5.23166,-5.80707 -1.72541,-1.85407 -2.90134,-3.37215 -2.61318,-3.3735 1.20742,-0.006 19.1258,2.45747 19.33375,2.65771 0.33411,0.32173 -3.88804,5.51172 -5.97638,7.34632 -0.99001,0.86973 -2.16406,1.58835 -2.609,1.59694 -0.44494,0.009 -1.75153,-1.08059 -2.90353,-2.4204 z"
         style="fill:#000000;fill-opacity:1;stroke:none;stroke-width:17.5584;stroke-dasharray:52.6751, 52.6751" />
      <path
         transform="scale(0.26458333)"
         id="path1178"
         d="m 166.95269,119.85664 c -1.49266,-1.49267 -2.55698,-4.2152 -3.74749,-9.58613 l -0.36811,-1.66073 5.39861,0.38448 c 6.84549,0.48752 8.59261,0.82843 8.59204,1.67654 -0.001,1.61738 -3.47963,7.83183 -5.18895,9.27014 -2.3317,1.96199 -2.64544,1.95635 -4.6861,-0.0843 z"
         style="fill:#000000;fill-opacity:1;stroke:none;stroke-width:17.5584;stroke-dasharray:52.6751, 52.6751" />
      <path
         transform="scale(0.26458333)"
         id="path1180"
         d="m 150.20091,118.87616 c -1.14284,-1.45288 -2.40804,-5.99654 -2.40804,-8.64789 0,-0.91477 0.42479,-1.46929 1.30659,-1.7056 1.70939,-0.4581 6.54552,-0.40444 9.28168,0.10298 l 2.16803,0.40207 -1.39977,3.0149 c -1.85321,3.99156 -3.74855,6.49861 -5.66581,7.49441 -2.01692,1.04758 -1.92413,1.06626 -3.28268,-0.66087 z"
         style="fill:#000000;fill-opacity:1;stroke:none;stroke-width:17.5584;stroke-dasharray:52.6751, 52.6751" />
      <path
         transform="scale(0.26458333)"
         id="path1182"
         d="m 139.18451,113.93969 c -1.05066,-1.12775 -2.16452,-3.92782 -1.72745,-4.34251 0.0954,-0.0905 1.93734,-0.35144 4.09321,-0.57984 3.65243,-0.38696 3.91977,-0.33731 3.91977,0.72791 0,1.70623 -2.4769,5.06402 -3.88603,5.26806 -0.69775,0.10103 -1.73932,-0.365 -2.3995,-1.07362 z"
         style="fill:#000000;fill-opacity:1;stroke:none;stroke-width:17.5584;stroke-dasharray:52.6751, 52.6751" />
      <path
         transform="scale(0.26458333)"
         id="path1186"
         d="m 217.1754,117.44796 c 0.6664,-2.23536 0.93173,-2.33094 5.25724,-1.89385 l 4.04597,0.40885 -3.63143,0.36397 c -2.34001,0.23453 -4.07119,0.75673 -4.86801,1.46839 -1.2304,1.0989 -1.23441,1.09717 -0.80377,-0.34736 z"
         style="fill:#000000;fill-opacity:1;stroke:none;stroke-width:17.5584;stroke-dasharray:52.6751, 52.6751" />
      <path
         transform="scale(0.26458333)"
         id="path1190"
         d="m 241.47756,115.69436 c -8.87004,-0.53211 -26.7933,-2.44484 -25.8514,-2.75881 0.38745,-0.12915 5.86225,0.21809 12.16623,0.77165 6.55025,0.57518 17.53352,1.03241 25.63113,1.06702 7.79315,0.0333 13.01951,0.21955 11.61413,0.41386 -4.89705,0.67709 -16.54156,0.92731 -23.56009,0.50628 z"
         style="fill:#000000;fill-opacity:1;stroke:none;stroke-width:17.5584;stroke-dasharray:52.6751, 52.6751" />
    </g>
    <path
       style="fill:#000000;fill-opacity:1;stroke:none;stroke-width:17.5584;stroke-dasharray:52.6751, 52.6751"
       d=""
       id="path1194"
       transform="scale(0.26458333)" />
    <path
       style="fill:#000000;fill-opacity:1;stroke:none;stroke-width:17.5584;stroke-dasharray:52.6751, 52.6751"
       d=""
       id="path1196"
       transform="scale(0.26458333)" />
    <g
       transform="translate(-184.27815,-56.176036)"
       id="layer1-6"
       inkscape:label="Layer 1">
      <g
         transform="translate(21.975234,-58.313136)"
         id="layer1-7"
         inkscape:label="Layer 1">
        <rect
           style="fill:none;fill-opacity:1;stroke:#000000;stroke-width:1.365;stroke-miterlimit:4;stroke-dasharray:none;stroke-dashoffset:0;stroke-opacity:1"
           id="rect917-3"
           width="46.988541"
           height="47.314854"
           x="19.803679"
           y="112.27634" />
      </g>
    </g>
  </g>
</svg>
