<?xml version="1.0" encoding="UTF-8" standalone="no"?>
<svg
   xmlns:dc="http://purl.org/dc/elements/1.1/"
   xmlns:cc="http://creativecommons.org/ns#"
   xmlns:rdf="http://www.w3.org/1999/02/22-rdf-syntax-ns#"
   xmlns:svg="http://www.w3.org/2000/svg"
   xmlns="http://www.w3.org/2000/svg"
   xmlns:sodipodi="http://sodipodi.sourceforge.net/DTD/sodipodi-0.dtd"
   xmlns:inkscape="http://www.inkscape.org/namespaces/inkscape"
   width="9.9976921mm"
   height="10.007231mm"
   viewBox="0 0 9.997692 10.007231"
   version="1.1"
   id="svg8"
   inkscape:version="1.0 (4035a4f, 2020-05-01)"
   sodipodi:docname="couteau.svg">
  <defs
     id="defs2" />
  <sodipodi:namedview
     id="base"
     pagecolor="#ffffff"
     bordercolor="#666666"
     borderopacity="1.0"
     inkscape:pageopacity="0.0"
     inkscape:pageshadow="2"
     inkscape:zoom="1.0339111"
     inkscape:cx="-65.355041"
     inkscape:cy="12.239829"
     inkscape:document-units="mm"
     inkscape:current-layer="layer1"
     inkscape:document-rotation="0"
     showgrid="false"
     inkscape:window-width="1252"
     inkscape:window-height="697"
     inkscape:window-x="1"
     inkscape:window-y="23"
     inkscape:window-maximized="0"
     fit-margin-top="0"
     fit-margin-left="0"
     fit-margin-right="0"
     fit-margin-bottom="0" />
  <metadata
     id="metadata5">
    <rdf:RDF>
      <cc:Work
         rdf:about="">
        <dc:format>image/svg+xml</dc:format>
        <dc:type
           rdf:resource="http://purl.org/dc/dcmitype/StillImage" />
        <dc:title></dc:title>
      </cc:Work>
    </rdf:RDF>
  </metadata>
  <g
     inkscape:label="Layer 1"
     inkscape:groupmode="layer"
     id="layer1"
     transform="translate(-98.904353,-47.019341)">
    <path
       style="fill:#000000;stroke:#000000;stroke-width:3.00862"
       d=""
       id="path934"
       transform="scale(0.26458333)" />
    <g
       transform="matrix(0.20676235,0,0,0.20557232,78.47348,37.312352)"
       id="g4553">
      <path
         sodipodi:nodetypes="ccscscc"
         id="path851"
         d="m 108.5035,85.337887 3.78137,3.216418 c 0,0 -0.8445,2.923444 -1.48276,3.410817 -0.97304,0.743061 -3.97214,-0.03031 -4.41068,-0.426606 -0.41222,-0.373347 -1.6619,-3.218679 -1.25779,-4.042256 0.4041,-0.823612 3.36988,-2.158396 3.36988,-2.158396 z"
         style="fill:none;stroke:#000000;stroke-width:0.226098px;stroke-linecap:butt;stroke-linejoin:miter;stroke-opacity:1" />
      <path
         sodipodi:nodetypes="csscc"
         id="path853"
         d="m 109.45247,84.208076 c 0.18123,0.327559 3.11786,3.105483 3.72552,3.04107 0.60765,-0.06453 2.33673,-1.991385 2.23339,-2.505659 -0.10342,-0.5143 -3.3316,-3.251325 -3.71364,-3.202352 -0.57003,-0.07022 -2.38984,2.17823 -2.24526,2.667012 z"
         style="fill:none;stroke:#000000;stroke-width:0.226098px;stroke-linecap:butt;stroke-linejoin:miter;stroke-opacity:1" />
      <path
         sodipodi:nodetypes="csccc"
         id="path853-7-9"
         d="m 117.05726,83.787269 c 0.63828,-0.03778 2.26741,-1.774535 2.13342,-2.315535 -0.13397,-0.540975 -4.50393,-4.27284 -4.90482,-4.240278 -0.60508,-0.100647 -2.18557,1.836141 -2.00931,2.352536 -0.26105,0.848252 4.06673,4.482515 4.78071,4.203347 z"
         style="fill:none;stroke:#000000;stroke-width:0.236878px;stroke-linecap:butt;stroke-linejoin:miter;stroke-opacity:1" />
      <path
         sodipodi:nodetypes="csscccccc"
         id="path887"
         d="m 117.39837,72.723815 c -0.3707,0.504708 -2.50499,2.166105 -2.33878,3.098721 0.2271,1.274421 3.96518,4.623278 5.22462,4.644496 1.25942,0.0212 2.31555,-3.186142 2.96057,-2.691369 0.64503,0.49475 3.07331,2.879647 3.07331,2.879647 l 0.96124,-1.180181 -11.9999,-10.388688 -0.97101,1.037155 c 1.02996,0.866795 2.85537,2.031454 3.08992,2.600278 z"
         style="fill:none;stroke:#000000;stroke-width:0.226098px;stroke-linecap:butt;stroke-linejoin:miter;stroke-opacity:1" />
      <circle
         transform="rotate(41.066894)"
         r="0.85454696"
         cy="-23.023186"
         cx="131.16756"
         id="path889"
         style="fill:#000000;stroke:#000000;stroke-width:1.16646" />
      <circle
         transform="rotate(41.066894)"
         style="fill:#000000;stroke:#000000;stroke-width:1.16646"
         id="path889-9"
         cx="149.49197"
         cy="-23.051842"
         r="0.85454696" />
      <path
         id="path928"
         d="m 106.1735,90.832872 c -0.85681,-1.634649 -1.10581,-3.223463 -0.56764,-3.621782 0.46343,-0.343059 1.7778,-1.126271 2.37857,-1.417504 l 0.54812,-0.26568 1.7798,1.550806 1.77978,1.550793 -0.47169,1.294147 c -0.25944,0.711789 -0.61733,1.4719 -0.7953,1.689164 -0.28708,0.350401 -0.42558,0.397775 -1.22638,0.419183 -0.84405,0.02262 -2.31185,-0.233415 -2.87401,-0.501227 -0.13593,-0.06477 -0.38398,-0.378841 -0.55125,-0.6979 z"
         style="fill:#000000;stroke:#000000;stroke-width:0.680245" />
      <path
         id="path930"
         d="m 109.93415,84.72883 c -0.57997,-0.560589 -0.61363,-0.630768 -0.45606,-0.952947 0.29022,-0.593528 1.7543,-2.14619 2.042,-2.165488 0.19066,-0.01245 0.71762,0.372125 2.0164,1.472773 2.08025,1.762938 2.07005,1.735865 1.08131,2.839496 -0.79945,0.892356 -1.27775,1.245392 -1.59247,1.17519 -0.31203,-0.06962 -2.24421,-1.550358 -3.09114,-2.368986 z"
         style="fill:#000000;stroke:#000000;stroke-width:0.717851" />
      <path
         id="path936"
         d="m 112.79315,80.328958 c -0.48591,-0.698255 -0.41165,-1.058886 0.41304,-2.005345 0.4699,-0.539281 0.81268,-0.84284 0.96336,-0.853391 0.55828,-0.03895 4.72666,3.57487 4.76492,4.130978 0.0121,0.17536 -0.17811,0.488616 -0.56912,0.937354 -0.78396,0.899724 -1.22688,1.138537 -1.75567,0.946601 -0.50341,-0.182713 -3.43358,-2.605962 -3.81652,-3.156209 z"
         style="fill:#000000;stroke:#000000;stroke-width:0.680245" />
      <path
         id="path938"
         d="m 115.03762,69.864405 0.38742,-0.367405 1.28189,1.116965 1.28191,1.116963 -0.28158,0.323026 -0.28159,0.323049 -1.09106,-0.905361 c -0.6001,-0.497899 -1.22454,-0.980584 -1.38766,-1.072585 -0.28368,-0.159873 -0.27968,-0.183318 0.0908,-0.534688 z"
         style="fill:#000000;stroke:#000000;stroke-width:0.680245" />
      <path
         id="path940"
         d="m 124.344,78.537231 -0.89097,-0.834067 0.34324,-0.393903 0.34322,-0.393927 1.44147,1.256009 c 1.42818,1.244416 1.43971,1.258021 1.24792,1.480851 -0.10657,0.123628 -0.25431,0.348967 -0.32849,0.500765 -0.15056,0.30775 0.0947,0.491564 -2.15638,-1.615728 z"
         style="fill:#000000;stroke:#000000;stroke-width:0.680245" />
      <path
         id="path942"
         d="m 118.976,73.859476 -1.29026,-1.178607 0.30064,-0.345049 0.30067,-0.345048 0.92846,0.809012 c 0.51066,0.444949 1.76648,1.487482 2.79081,2.316636 l 1.86233,1.507622 -0.40345,0.463041 -0.40347,0.46304 -1.39767,-1.25608 c -0.76869,-0.690866 -1.97829,-1.786446 -2.68793,-2.43471 z"
         style="fill:#000000;stroke:#000000;stroke-width:0.680245" />
      <path
         id="path944"
         d="m 116.58857,77.669193 c -1.13657,-1.18216 -1.43925,-1.786944 -1.19047,-2.378727 0.18249,-0.434115 1.80246,-2.22815 2.02586,-2.243485 0.0486,-0.0036 1.24575,1.058378 2.65992,2.359487 l 2.57135,2.365549 -0.83074,1.095864 c -0.99508,1.312524 -1.36643,1.551954 -1.99889,1.285906 -0.36232,-0.152247 -2.26238,-1.412424 -2.37941,-1.57798 -0.0212,-0.03102 -0.40744,-0.438435 -0.85755,-0.906579 z"
         style="fill:#000000;stroke:#000000;stroke-width:0.680245" />
      <path
         id="path948"
         d="m 125.71549,63.760644 c 3.96794,-4.619839 7.60862,-8.794858 8.09042,-9.277797 0.94325,-0.945436 1.58118,-1.386663 2.82309,-1.952578 1.27151,-0.579397 4.43419,-1.56694 4.58794,-1.432568 0.0762,0.0666 -0.19683,2.1189 -0.43099,3.239354 -0.25085,1.200402 -0.6851,2.510502 -1.06499,3.213015 -0.25599,0.473518 -1.48382,1.945649 -6.72665,8.065494 -3.52743,4.11744 -7.08354,8.207967 -7.90218,9.090333 l -1.48901,1.603796 -1.08958,-0.876175 c -0.59928,-0.481877 -1.74711,-1.415437 -2.55079,-2.074493 l -1.46129,-1.198245 z m -3.75069,9.645191 c 0.0854,-0.09814 1.34456,-1.379436 2.79818,-2.847093 3.71437,-3.750153 8.25663,-8.403245 9.6184,-9.853118 1.3019,-1.386153 1.46316,-1.615713 3.38435,-4.817299 0.71538,-1.192172 1.31882,-2.188456 1.34098,-2.213974 0.0933,-0.107489 -0.18617,-0.224962 -0.32725,-0.137504 -0.0847,0.05252 -1.21003,0.969758 -2.50069,2.038308 -2.69368,2.230109 -2.88358,2.430408 -5.53081,5.834122 -2.90594,3.736325 -8.80138,11.422251 -8.98189,11.709773 -0.20414,0.325018 -0.04,0.561695 0.19877,0.286742 z"
         style="fill:#000000;stroke:#000000;stroke-width:0.510693" />
      <g
         transform="translate(57.716901,-6.0613626)"
         id="layer1-6"
         inkscape:label="Layer 1">
        <g
           transform="translate(21.975234,-58.313136)"
           id="layer1-7"
           inkscape:label="Layer 1">
          <rect
             style="fill:none;fill-opacity:1;stroke:#000000;stroke-width:1.365;stroke-miterlimit:4;stroke-dasharray:none;stroke-dashoffset:0;stroke-opacity:1"
             id="rect917-3"
             width="46.988541"
             height="47.314854"
             x="19.803679"
             y="112.27634" />
        </g>
      </g>
    </g>
  </g>
</svg>
