<?xml version="1.0" encoding="UTF-8" standalone="no"?>
<svg
   xmlns:dc="http://purl.org/dc/elements/1.1/"
   xmlns:cc="http://creativecommons.org/ns#"
   xmlns:rdf="http://www.w3.org/1999/02/22-rdf-syntax-ns#"
   xmlns:svg="http://www.w3.org/2000/svg"
   xmlns="http://www.w3.org/2000/svg"
   xmlns:sodipodi="http://sodipodi.sourceforge.net/DTD/sodipodi-0.dtd"
   xmlns:inkscape="http://www.inkscape.org/namespaces/inkscape"
   width="9.9999723mm"
   height="10.000013mm"
   viewBox="0 0 9.9999723 10.000013"
   version="1.1"
   id="svg943"
   inkscape:version="1.0 (4035a4f, 2020-05-01)"
   sodipodi:docname="fort.svg">
  <defs
     id="defs937" />
  <sodipodi:namedview
     id="base"
     pagecolor="#ffffff"
     bordercolor="#666666"
     borderopacity="1.0"
     inkscape:pageopacity="0.0"
     inkscape:pageshadow="2"
     inkscape:zoom="1.2034532"
     inkscape:cx="-35.809247"
     inkscape:cy="179.84114"
     inkscape:document-units="mm"
     inkscape:current-layer="layer1"
     inkscape:document-rotation="0"
     showgrid="false"
     inkscape:window-width="1252"
     inkscape:window-height="697"
     inkscape:window-x="28"
     inkscape:window-y="23"
     inkscape:window-maximized="0"
     fit-margin-top="0"
     fit-margin-left="0"
     fit-margin-right="0"
     fit-margin-bottom="0" />
  <metadata
     id="metadata940">
    <rdf:RDF>
      <cc:Work
         rdf:about="">
        <dc:format>image/svg+xml</dc:format>
        <dc:type
           rdf:resource="http://purl.org/dc/dcmitype/StillImage" />
        <dc:title></dc:title>
      </cc:Work>
    </rdf:RDF>
  </metadata>
  <g
     inkscape:label="Layer 1"
     inkscape:groupmode="layer"
     id="layer1"
     transform="translate(-13.347739,-82.71799)">
    <g
       transform="matrix(0.20680951,0,0,0.20542407,10.587202,65.725821)"
       id="g5090">
      <path
         sodipodi:nodetypes="csssssssssssssccc"
         id="path1520"
         d="m 47.689208,130.57902 c -1.639755,-1.83726 -1.5343,-6.83963 -3.456839,-7.8009 -4.518995,-2.2595 -9.66127,6.64039 -21.038892,-4.73723 -2.156588,-2.15659 -3.813301,-3.30736 -5.155225,-5.99121 -1.59648,-3.19296 7.937398,-11.83865 9.753129,-13.654375 3.965434,-3.965436 4.992074,-11.785332 11.564424,-8.499157 1.896207,0.948104 2.382609,0.585309 3.343931,2.507949 5.707869,11.415743 -7.065406,3.811362 -7.523844,4.040581 -0.967705,0.483853 -1.950626,4.375102 -1.950626,5.433882 0,1.04386 -2.102859,7.51094 -1.671964,7.94183 0.616844,0.61685 4.12826,-3.04805 5.015894,-3.34393 3.31877,-1.10625 4.947403,2.57879 6.13054,3.76193 0.880011,0.88001 4.95324,-3.62546 5.991207,-4.31925 0.737226,-0.49277 2.594934,-0.51907 4.530948,0.17292 3.457239,1.23571 6.63585,2.08297 7.641236,2.58566 -0.02694,9.04147 0.223089,16.47803 8.02e-4,21.17823 -1.464312,1.4643 -11.272946,-0.092 -13.174721,0.72307 z"
         style="fill:none;stroke:#000000;stroke-width:0.174598px;stroke-linecap:butt;stroke-linejoin:miter;stroke-opacity:1" />
      <g
         transform="translate(90.262601,-26.693694)"
         id="layer1-7"
         inkscape:label="Layer 1">
        <rect
           style="fill:none;fill-opacity:1;stroke:#000000;stroke-width:1.365;stroke-miterlimit:4;stroke-dasharray:none;stroke-dashoffset:0;stroke-opacity:1"
           id="rect917-3"
           width="46.988541"
           height="47.314854"
           x="-76.231888"
           y="110.09371" />
      </g>
      <path
         sodipodi:nodetypes="ssssssssssssssssssssccccccs"
         transform="scale(0.26458333)"
         id="path1610"
         d="m 177.30187,485.95571 c -0.85519,-2.62819 -2.11379,-6.99424 -2.79689,-9.70233 -3.48179,-13.80345 -8.23624,-16.45665 -22.67288,-12.65248 -14.5827,3.84267 -17.57244,4.337 -23.9435,3.95882 -14.25741,-0.84629 -27.7559,-9.29543 -47.47578,-29.71661 -10.21662,-10.57995 -12.993816,-15.35748 -11.698602,-20.12474 2.181199,-8.02828 9.666945,-17.76627 28.211155,-36.69908 11.973237,-12.22413 14.153607,-14.8593 19.509887,-23.57941 9.70338,-15.79725 13.95009,-19.61845 21.80303,-19.61845 4.52083,0 15.87854,4.40725 19.19254,7.44748 2.29917,2.10924 6.44259,10.64808 7.96222,16.4087 3.07742,11.66597 -3.70721,13.44723 -22.5527,5.92105 -10.03093,-4.00597 -10.08601,-4.01794 -11.58647,-2.51748 -1.9327,1.9327 -4.95456,10.62947 -6.02194,17.33089 -0.4569,2.86858 -2.19641,10.75635 -3.86556,17.52839 -3.61133,14.6517 -3.70612,15.8665 -1.23814,15.8665 1.88047,0 4.2852,-1.58964 13.03925,-8.61952 3.01272,-2.41935 6.29113,-4.38774 7.63682,-4.58525 5.30619,-0.77878 10.06792,2.08639 15.89968,9.56697 6.00447,7.70212 6.79395,7.51374 20.71952,-4.94403 4.11614,-3.68229 8.47562,-8.80128 19.5706,-8.05057 17.91382,-1.13339 19.34708,7.63346 30.67009,11.40757 v 40.07605 40.07605 h -24.40371 -24.40372 z"
         style="fill:#000000;fill-opacity:1;stroke:#000000;stroke-width:3.94443;stroke-opacity:1" />
    </g>
  </g>
</svg>
