<?xml version="1.0" encoding="UTF-8" standalone="no"?>
<svg
   xmlns:dc="http://purl.org/dc/elements/1.1/"
   xmlns:cc="http://creativecommons.org/ns#"
   xmlns:rdf="http://www.w3.org/1999/02/22-rdf-syntax-ns#"
   xmlns:svg="http://www.w3.org/2000/svg"
   xmlns="http://www.w3.org/2000/svg"
   xmlns:sodipodi="http://sodipodi.sourceforge.net/DTD/sodipodi-0.dtd"
   xmlns:inkscape="http://www.inkscape.org/namespaces/inkscape"
   width="48.353542mm"
   height="48.679855mm"
   viewBox="0 0 48.353542 48.679855"
   version="1.1"
   id="svg1636"
   inkscape:version="1.0 (4035a4f, 2020-05-01)"
   sodipodi:docname="reglettes de ouf.svg">
  <defs
     id="defs1630" />
  <sodipodi:namedview
     fit-margin-bottom="0"
     fit-margin-right="0"
     fit-margin-left="0"
     fit-margin-top="0"
     id="base"
     pagecolor="#ffffff"
     bordercolor="#666666"
     borderopacity="1.0"
     inkscape:pageopacity="0.0"
     inkscape:pageshadow="2"
     inkscape:zoom="1.0530617"
     inkscape:cx="129.9151"
     inkscape:cy="181.71704"
     inkscape:document-units="mm"
     inkscape:current-layer="layer1"
     inkscape:document-rotation="0"
     showgrid="false"
     inkscape:window-width="1252"
     inkscape:window-height="703"
     inkscape:window-x="42"
     inkscape:window-y="23"
     inkscape:window-maximized="0" />
  <metadata
     id="metadata1633">
    <rdf:RDF>
      <cc:Work
         rdf:about="">
        <dc:format>image/svg+xml</dc:format>
        <dc:type
           rdf:resource="http://purl.org/dc/dcmitype/StillImage" />
        <dc:title></dc:title>
      </cc:Work>
    </rdf:RDF>
  </metadata>
  <g
     transform="translate(-52.174418,-51.255313)"
     inkscape:label="Layer 1"
     inkscape:groupmode="layer"
     id="layer1">
    <rect
       style="fill:none;fill-opacity:1;stroke:#000000;stroke-width:1.365;stroke-miterlimit:4;stroke-dasharray:none;stroke-dashoffset:0;stroke-opacity:1"
       id="rect917-3"
       width="46.988541"
       height="47.314854"
       x="52.856918"
       y="51.937813" />
    <path
       style="fill:none;stroke:#000000;stroke-width:0.160439px;stroke-linecap:butt;stroke-linejoin:miter;stroke-opacity:1"
       d="m 80.317255,98.595402 c 1.766227,-5.386382 -7.854069,-18.246926 -3.421006,-22.679997 0.3484,-0.348397 2.920353,6.522172 4.814749,5.574971 1.400601,-0.700298 0.778209,-20.490043 -0.506815,-23.060096 -0.894853,-1.789707 14.913813,-1.975034 15.331166,-1.140338 1.396637,2.793284 -0.442272,10.47334 -0.253407,13.684017 0.384474,6.536156 -0.749351,13.872328 0.38011,20.272615 0.674313,3.821136 0.02521,8.235751 0.126703,8.235751 0.215355,0 -0.418583,-0.113273 -0.633516,-0.126703 -2.69674,-0.168541 -5.199647,0.408616 -7.855639,0 -2.409989,-0.370771 -5.806767,0.327569 -7.982345,-0.76022 z"
       id="path2228" />
    <path
       style="fill:none;stroke:#000000;stroke-width:0.160439px;stroke-linecap:butt;stroke-linejoin:miter;stroke-opacity:1"
       d="m 65.873013,98.341995 c 7.88e-4,-7.667504 -5.885789,-13.959204 -6.968713,-21.539658 -0.42975,-3.008258 0.09033,-5.061901 1.900559,-7.475529 1.701385,-2.268519 13.913088,-9.215258 16.851613,-8.23575 1.463087,0.487697 1.653255,6.492426 1.900559,7.728936 0.220477,1.102402 -1.405671,8.027801 -3.294302,5.194853 -0.352515,-0.528765 -0.778308,-8.631538 -1.351497,-8.058348 -1.393659,0.0058 -3.962222,1.857266 -7.264363,5.270867 -0.349321,1.047959 -0.243325,7.257629 1.900556,5.828377 0.164808,-0.109867 1.596203,-6.259433 3.040894,-4.814742 1.512536,1.512538 1.553739,6.548826 1.140334,8.615859 -0.768679,3.843392 -1.821923,6.916265 0.380111,10.769823 0.486805,0.851913 3.373149,6.636464 2.66078,7.348829 -1.252053,1.252058 -10.240148,-0.08653 -10.896531,-0.633517 z"
       id="path2230"
       sodipodi:nodetypes="csssssccsssssc" />
    <path
       style="fill:#000000;stroke:#000000;stroke-width:0.685996"
       d="M 88.853763,99.275575 C 88.799053,99.220115 87.213369,99.13187 85.330076,99.07947 82.768859,99.00822 81.735499,98.930294 81.22973,98.770348 l -0.676177,-0.213833 0.06196,-1.070391 c 0.111092,-1.919056 -0.37678,-3.953295 -1.976245,-8.240165 -2.412825,-6.466837 -3.035706,-9.061396 -2.6571,-11.067928 0.162725,-0.862409 0.611545,-1.834388 0.889146,-1.92556 0.08317,-0.02728 0.526474,0.626235 0.985128,1.452327 1.650557,2.972859 2.511336,3.961913 3.448067,3.961913 0.658651,0 0.829942,-0.283119 1.086052,-1.795079 0.272525,-1.608876 0.227573,-11.673327 -0.06741,-15.092011 -0.253948,-2.943137 -0.538685,-5.017261 -0.814653,-5.934236 -0.171397,-0.569504 -3.466131,-6.793119 -3.26118,-6.942981 0.599937,-0.438685 5.701378,0.289966 9.257306,0.07248 3.334821,-0.203956 12.008249,-0.36967 12.340835,-0.03707 -1.399073,9.189895 -0.457654,37.270516 -4e-6,47.314857 -5.074578,-0.178979 -10.893826,0.122085 -10.991709,0.02291 z"
       id="path2232"
       sodipodi:nodetypes="ssscssscsssssssccss" />
    <path
       style="fill:#000000;stroke:#000000;stroke-width:0.685996"
       d="m 71.201885,99.200776 c -1.307459,-0.133621 -3.968578,-0.576727 -4.667613,-0.777213 l -0.479084,-0.137398 -0.08751,-1.138537 c -0.221537,-2.882124 -0.998029,-5.252884 -3.502602,-10.694027 -2.683976,-5.830882 -3.49826,-8.506496 -3.494775,-11.48328 0.0023,-1.954256 0.421598,-3.278385 1.576897,-4.979639 0.832536,-1.225964 2.478206,-2.503304 5.601862,-4.348081 5.643767,-3.3331 10.732593,-5.155908 11.698227,-4.190277 0.592665,0.592671 0.932879,1.976473 1.335223,5.431002 0.269634,2.315059 0.273041,2.48889 0.06857,3.497954 -0.407907,2.013112 -1.2367,3.859939 -1.814505,4.043324 -0.387089,0.12286 -0.766974,-0.05348 -0.972867,-0.451653 -0.102848,-0.19889 -0.345041,-1.73543 -0.538211,-3.414534 -0.193169,-1.679113 -0.422503,-3.41194 -0.509635,-3.85074 -0.153686,-0.773989 -0.171942,-0.799107 -0.611306,-0.841027 -1.029712,-0.09826 -3.59505,1.626026 -6.141178,4.127759 -1.259893,1.237932 -1.319373,1.371198 -1.314928,2.946196 0.0074,2.634379 0.656234,4.47109 1.579362,4.47109 0.580773,0 0.757191,-0.247572 1.279163,-1.79508 0.97749,-2.89801 1.711187,-3.876055 2.365398,-3.15316 0.745465,0.823728 1.184492,2.887786 1.179766,5.546605 -0.0031,1.767077 -0.05848,2.259906 -0.485204,4.321501 -0.315859,1.525952 -0.508599,2.876223 -0.559917,3.922587 -0.109775,2.238335 0.130858,3.113828 1.809094,6.581978 1.799617,3.718989 2.459231,5.642896 2.068607,6.033527 -0.455932,0.455925 -2.769207,0.598233 -5.382836,0.331123 z"
       id="path2234" />
  </g>
</svg>
