<?xml version="1.0" encoding="UTF-8" standalone="no"?>
<svg
   xmlns:dc="http://purl.org/dc/elements/1.1/"
   xmlns:cc="http://creativecommons.org/ns#"
   xmlns:rdf="http://www.w3.org/1999/02/22-rdf-syntax-ns#"
   xmlns:svg="http://www.w3.org/2000/svg"
   xmlns="http://www.w3.org/2000/svg"
   xmlns:sodipodi="http://sodipodi.sourceforge.net/DTD/sodipodi-0.dtd"
   xmlns:inkscape="http://www.inkscape.org/namespaces/inkscape"
   width="48.353542mm"
   height="48.765026mm"
   viewBox="0 0 48.353542 48.765026"
   version="1.1"
   id="svg2260"
   inkscape:version="1.0 (4035a4f, 2020-05-01)"
   sodipodi:docname="tech.svg">
  <defs
     id="defs2254" />
  <sodipodi:namedview
     id="base"
     pagecolor="#ffffff"
     bordercolor="#666666"
     borderopacity="1.0"
     inkscape:pageopacity="0.0"
     inkscape:pageshadow="2"
     inkscape:zoom="1.5061487"
     inkscape:cx="138.45902"
     inkscape:cy="86.311479"
     inkscape:document-units="mm"
     inkscape:current-layer="layer1"
     inkscape:document-rotation="0"
     showgrid="false"
     inkscape:window-width="1252"
     inkscape:window-height="677"
     inkscape:window-x="30"
     inkscape:window-y="23"
     inkscape:window-maximized="0"
     fit-margin-top="0"
     fit-margin-left="0"
     fit-margin-right="0"
     fit-margin-bottom="0" />
  <metadata
     id="metadata2257">
    <rdf:RDF>
      <cc:Work
         rdf:about="">
        <dc:format>image/svg+xml</dc:format>
        <dc:type
           rdf:resource="http://purl.org/dc/dcmitype/StillImage" />
        <dc:title />
      </cc:Work>
    </rdf:RDF>
  </metadata>
  <g
     inkscape:label="Layer 1"
     inkscape:groupmode="layer"
     id="layer1"
     transform="translate(-21.180373,-101.90412)">
    <rect
       y="102.58662"
       x="21.862873"
       height="47.314854"
       width="46.988541"
       id="rect917-3"
       style="fill:none;fill-opacity:1;stroke:#000000;stroke-width:1.365;stroke-miterlimit:4;stroke-dasharray:none;stroke-dashoffset:0;stroke-opacity:1" />
    <path
       sodipodi:nodetypes="csssscssssscsssssccscccscsccsccscscsssscssssscc"
       style="fill:#000000;stroke:#000000;stroke-width:0.549949"
       d="m 30.572594,150.10174 c -1.324276,-0.44897 -1.434277,-0.54724 -1.432058,-1.27937 0.0059,-1.94761 1.020334,-3.97153 2.847451,-5.68105 1.108162,-1.03684 2.644252,-2.12136 5.016738,-3.54194 2.451696,-1.46801 2.900439,-1.79923 2.900439,-2.14086 0,-0.59516 -1.433221,-2.43222 -6.497133,-8.32783 -2.352102,-2.7384 -3.476767,-4.15491 -3.760812,-4.73673 -0.501185,-1.0266 -0.651791,-3.47136 0.336943,-6.44412 0.416645,-1.2527 1.186697,-2.86582 2.094502,-4.51382 2.142135,-3.88877 8.654576,-5.33131 9.165329,-4.66103 0.810895,1.06417 -5.236605,2.84484 -6.801277,6.28685 -1.443024,3.17441 -2.001336,4.2633 -1.994043,5.64755 0.0069,1.30254 0.301973,1.81535 1.76242,3.06258 1.172683,1.00148 1.644578,1.25467 2.338422,1.25467 0.676489,0 0.940369,-0.17746 0.927675,-0.62389 -0.01272,-0.44738 -0.2617,-0.77451 -1.309728,-1.72083 -0.69075,-0.62371 -0.950208,-0.9434 -1.209197,-1.48991 -0.316516,-0.66791 -0.329318,-0.74927 -0.319182,-2.0283 -0.174544,-3.13964 4.116062,-4.32532 5.653026,-3.06489 0.818593,0.71873 0.997232,1.44636 1.087116,4.42802 0.07781,2.58118 0.07644,2.57611 0.698627,2.57941 1.584403,-0.56278 1.635439,-1.25171 3.25221,-0.57448 1.08977,0.46253 2.25497,1.22322 1.82189,1.73905 -0.819248,-0.74415 -0.431774,1.14412 -0.37471,2.19493 0.159128,2.93024 0.691936,4.10725 1.856752,4.10171 1.061516,-0.005 1.641191,-0.44887 5.008744,-3.83484 2.178655,-2.19057 2.613555,-2.57829 3.220923,-2.87152 0.698577,-0.33725 0.704445,-0.33809 1.144719,-0.16192 0.637235,0.25497 1.523184,1.25495 1.862266,2.10197 0.528248,1.31953 0.654393,2.25411 0.658048,4.87525 0.0018,1.31916 -0.03931,3.74162 -0.09146,5.38324 -0.113253,3.56591 -0.06484,3.94123 0.616231,4.77738 0.247544,0.3039 1.046969,1.07797 1.776503,1.72013 2.897417,2.55043 3.432084,3.31826 2.561675,3.6788 -0.422811,0.17513 -0.947568,0.0164 -2.471574,-0.74754 -0.83037,-0.41626 -1.61586,-0.71726 -2.350573,-0.90075 -1.846298,-0.4611 -2.437992,-0.68453 -2.542778,-0.96014 -0.156022,-0.41037 -0.30527,-1.4077 -0.478469,-3.19733 -0.536904,-5.54767 -0.582067,-5.89985 -0.924788,-7.21142 -0.219019,-0.83817 -0.517722,-1.29985 -0.803871,-1.24248 -0.08943,0.0179 -1.015041,1.49566 -2.056914,3.28386 -1.743765,2.99287 -1.973633,3.33539 -2.892418,4.30981 -2.735477,2.90112 -6.284449,4.50199 -12.176996,5.49277 -1.185279,0.19929 -2.111652,0.41498 -2.452422,0.57099 -0.912473,0.41774 -1.467095,1.08639 -2.112296,2.54655 -0.981841,2.22202 -1.632491,2.57361 -3.555954,1.92149 z"
       id="path2856" />
    <path
       sodipodi:nodetypes="csscssccscc"
       id="path2856-8"
       d="m 45.494984,126.02568 c 1.203809,-0.30285 1.880901,0.20832 2.985395,1.12211 0.976041,0.80751 1.309583,0.40938 4.263964,2.30975 1.136553,0.73108 2.641506,0.74014 3.464236,1.16139 3.010826,1.54164 5.389287,3.6909 6.551762,5.37366 1.560945,2.25957 -0.419329,2.65144 0.770475,2.82113 1.614674,0.2303 3.216001,-1.70912 2.360406,-3.28232 -0.399248,-0.7349 -3.054697,-2.82716 -9.245788,-7.28628 -4.732019,-2.19127 -6.656435,-4.3666 -9.757053,-5.27472 -0.372499,-0.1091 -0.761975,-0.19991 -1.175334,-0.27026 -0.323512,1.70224 -2.096972,3.88991 -0.218063,3.32554 z"
       style="fill:#000000;stroke:#000000;stroke-width:0.727626" />
  </g>
</svg>
