<?xml version="1.0" encoding="UTF-8" standalone="no"?>
<svg
   xmlns:dc="http://purl.org/dc/elements/1.1/"
   xmlns:cc="http://creativecommons.org/ns#"
   xmlns:rdf="http://www.w3.org/1999/02/22-rdf-syntax-ns#"
   xmlns:svg="http://www.w3.org/2000/svg"
   xmlns="http://www.w3.org/2000/svg"
   xmlns:sodipodi="http://sodipodi.sourceforge.net/DTD/sodipodi-0.dtd"
   xmlns:inkscape="http://www.inkscape.org/namespaces/inkscape"
   sodipodi:docname="tech.svg"
   inkscape:version="1.0 (4035a4f, 2020-05-01)"
   id="svg2260"
   version="1.1"
   viewBox="0 0 48.353542 48.765026"
   height="48.765026mm"
   width="48.353542mm">
  <defs
     id="defs2254" />
  <sodipodi:namedview
     fit-margin-bottom="0"
     fit-margin-right="0"
     fit-margin-left="0"
     fit-margin-top="0"
     inkscape:window-maximized="0"
     inkscape:window-y="0"
     inkscape:window-x="0"
     inkscape:window-height="800"
     inkscape:window-width="1280"
     showgrid="false"
     inkscape:document-rotation="0"
     inkscape:current-layer="layer1"
     inkscape:document-units="mm"
     inkscape:cy="137.59308"
     inkscape:cx="313.49692"
     inkscape:zoom="0.96619884"
     inkscape:pageshadow="2"
     inkscape:pageopacity="0.0"
     borderopacity="1.0"
     bordercolor="#666666"
     pagecolor="#ffffff"
     id="base" />
  <metadata
     id="metadata2257">
    <rdf:RDF>
      <cc:Work
         rdf:about="">
        <dc:format>image/svg+xml</dc:format>
        <dc:type
           rdf:resource="http://purl.org/dc/dcmitype/StillImage" />
        <dc:title></dc:title>
      </cc:Work>
    </rdf:RDF>
  </metadata>
  <g
     transform="translate(-21.180373,-101.90412)"
     id="layer1"
     inkscape:groupmode="layer"
     inkscape:label="Layer 1">
    <rect
       style="fill:none;fill-opacity:1;stroke:#000000;stroke-width:1.365;stroke-miterlimit:4;stroke-dasharray:none;stroke-dashoffset:0;stroke-opacity:1"
       id="rect917-3"
       width="46.988541"
       height="47.314854"
       x="21.862873"
       y="102.58662" />
    <path
       id="path2856"
       d="m 30.572594,150.10174 c -1.324276,-0.44897 -1.434277,-0.54724 -1.432058,-1.27937 0.0059,-1.94761 1.020334,-3.97153 2.847451,-5.68105 1.108162,-1.03684 2.644252,-2.12136 5.016738,-3.54194 2.451696,-1.46801 2.900439,-1.79923 2.900439,-2.14086 0,-0.59516 -1.433221,-2.43222 -6.497133,-8.32783 -2.352102,-2.7384 -3.476767,-4.15491 -3.760812,-4.73673 -0.501185,-1.0266 -0.218252,-3.34749 0.77048,-6.32025 1.399795,-4.20867 3.591968,-7.7577 4.791793,-7.7577 0.889722,0 0.719069,0.87027 -0.845603,4.31228 -1.443024,3.17441 -1.922509,4.69685 -1.915216,6.0811 0.0069,1.30254 0.301973,1.81535 1.76242,3.06258 1.172683,1.00148 1.644578,1.25467 2.338422,1.25467 0.676489,0 0.940369,-0.17746 0.927675,-0.62389 -0.01272,-0.44738 -0.2617,-0.77451 -1.309728,-1.72083 -0.69075,-0.62371 -0.950208,-0.9434 -1.209197,-1.48991 -0.316516,-0.66791 -0.329318,-0.74927 -0.319182,-2.0283 0.01639,-2.06888 0.151376,-2.29091 1.813361,-2.98279 1.74188,-0.72515 3.074826,-0.75366 3.839665,-0.0821 0.818593,0.71873 0.997232,1.44636 1.087116,4.42802 0.07781,2.58118 0.07644,2.57611 0.698627,2.57941 0.678733,0.003 1.285203,-1.11751 1.613734,-2.98313 0.221821,-1.25966 0.311211,-3.52889 0.171809,-4.3615 -0.145718,-0.87033 -0.438748,-1.18859 -1.443885,-1.5682 -0.888249,-0.33546 -0.97411,-0.39201 -2.780843,-1.83136 -0.762181,-0.6072 -1.843161,-1.40997 -2.402178,-1.78393 -2.04576,-1.36855 -2.784646,-1.52546 -5.041698,-1.07069 -2.162952,0.43582 -3.354451,0.31914 -3.841472,-0.37618 -0.660931,-0.94361 0.92586,-2.96011 2.337296,-2.97024 0.659201,-0.005 2.999221,0.94448 8.148563,3.30543 4.540886,2.08197 4.800189,2.19432 6.769023,2.93285 1.384014,0.51915 1.506456,0.58745 1.686171,0.94062 0.431483,0.84793 0.358627,3.33665 -0.260992,8.91517 -0.267472,2.40809 -0.313202,3.15985 -0.256138,4.21066 0.159128,2.93024 0.691936,4.10725 1.856752,4.10171 1.061516,-0.005 1.641191,-0.44887 5.008744,-3.83484 2.178655,-2.19057 2.613555,-2.57829 3.220923,-2.87152 0.698577,-0.33725 0.704445,-0.33809 1.144719,-0.16192 0.637235,0.25497 1.523184,1.25495 1.862266,2.10197 0.528248,1.31953 0.654393,2.25411 0.658048,4.87525 0.0018,1.31916 -0.03931,3.74162 -0.09146,5.38324 -0.113253,3.56591 -0.06484,3.94123 0.616231,4.77738 0.247544,0.3039 1.046969,1.07797 1.776503,1.72013 2.897417,2.55043 3.432084,3.31826 2.561675,3.6788 -0.422811,0.17513 -0.947568,0.0164 -2.471574,-0.74754 -0.83037,-0.41626 -1.61586,-0.71726 -2.350573,-0.90075 -1.846298,-0.4611 -2.437992,-0.68453 -2.542778,-0.96014 -0.156022,-0.41037 -0.30527,-1.4077 -0.478469,-3.19733 -0.536904,-5.54767 -0.582067,-5.89985 -0.924788,-7.21142 -0.219019,-0.83817 -0.517722,-1.29985 -0.803871,-1.24248 -0.08943,0.0179 -1.015041,1.49566 -2.056914,3.28386 -1.743765,2.99287 -1.973633,3.33539 -2.892418,4.30981 -2.735477,2.90112 -6.284449,4.50199 -12.176996,5.49277 -1.185279,0.19929 -2.111652,0.41498 -2.452422,0.57099 -0.912473,0.41774 -1.467095,1.08639 -2.112296,2.54655 -0.981841,2.22202 -1.632491,2.57361 -3.555954,1.92149 z"
       style="fill:#000000;stroke:#000000;stroke-width:0.549949" />
    <path
       id="path2858"
       d="m 38.051384,108.03106 c -0.431201,-0.15803 -1.454423,-0.82041 -1.671633,-1.08214 -0.282455,-0.34033 0.39065,-1.1931 1.406803,-1.78229 0.699336,-0.40549 1.626107,-0.63884 2.311501,-0.582 0.495231,0.0411 0.637226,0.1027 0.891004,0.38672 0.545309,0.61031 0.331314,1.74419 -0.453862,2.40488 -0.79623,0.66998 -1.753686,0.9224 -2.483813,0.65483 z"
       style="fill:#000000;stroke:#000000;stroke-width:0.549949" />
  </g>
</svg>
